PathFileType	4	(X/Y/Z)	D:\Share\Shared_Data\Ergonomics\Sit To Stand Pertubation\S2\Perturbed.trc
DataRate	CameraRate	NumFrames	NumMarkers	Units	OrigDataRate	OrigDataStartFrame	OrigNumFrames	
100	100	9	18	m	100	14346	221
Frame#	Time	R_Toe			R_ASIS			R_Pelvis			V_Sacral			L_Pelvis			L_ASIS			Clavical			R_Acromium			L_Acromium			Sternum			Torso			R_Thigh_Med			R_Thigh_Lat			R_Thigh			R_Shank_Med			R_Shank_Lat			R_Shank			R_Heel			
		X1	Y1	Z1	X2	Y2	Z2	X3	Y3	Z3	X4	Y4	Z4	X5	Y5	Z5	X6	Y6	Z6	X7	Y7	Z7	X8	Y8	Z8	X9	Y9	Z9	X10	Y10	Z10	X11	Y11	Z11	X12	Y12	Z12	X13	Y13	Z13	X14	Y14	Z14	X15	Y15	Z15	X16	Y16	Z16	X17	Y17	Z17	X18	Y18	Z18	

14346	143.45	0.4327814	0.073880859	0.14861234	0.044878433	0.63401044	0.1233233	-0.028543953	0.66480652	0.16454047	-0.17797137	0.65811859	0.01597748	-0.066478905	0.68659039	-0.16802809	0.030448759	0.65967023	-0.14519006	0.34026364	0.84194641	-0.0086949406	0.2968067	0.94020142	0.19079836	0.30244305	0.93519562	-0.19741423	0.25489648	0.7038689	-0.0034796889	0.32085986	0.80993744	-0.11768459	0.37965524	0.4996799	0.14046198	0.34290909	0.50636517	0.24218648	0.19582245	0.62914221	0.18276785	0.29894409	0.1125061	0.11121175	0.27382849	0.096792305	0.20186244	0.32828806	0.3526842	0.24807669	0.19535727	0.058735191	0.1457684
14347	143.46	0.4330173	0.073522865	0.14869568	0.049581226	0.63596576	0.12332332	-0.023439106	0.66747656	0.16470581	-0.17302032	0.66205579	0.016128254	-0.061115387	0.68975128	-0.16800294	0.035275131	0.66173541	-0.14514503	0.34890421	0.83935004	-0.0082850132	0.30519061	0.93896259	0.19042769	0.31192059	0.93278589	-0.19739442	0.26040988	0.70229272	-0.0029648814	0.32870517	0.80704626	-0.11694052	0.38276401	0.49885153	0.13973785	0.34622409	0.5058562	0.2415434	0.20002045	0.62970245	0.18210475	0.29936041	0.11232646	0.111007	0.27415073	0.09680249	0.20171922	0.33058829	0.35225641	0.24753252	0.19546754	0.058731499	0.14565245
14348	143.47	0.4332117	0.073214363	0.14881827	0.054209232	0.638091	0.12329143	-0.018410101	0.67021844	0.16483975	-0.16822766	0.66578857	0.016238981	-0.05589621	0.69282587	-0.1680042	0.039969494	0.66387158	-0.14513802	0.35707581	0.83735028	-0.0079667988	0.31304419	0.93824182	0.19006538	0.32067081	0.93095074	-0.19738933	0.26552728	0.70135254	-0.0024420216	0.33606677	0.80478729	-0.11621049	0.38595001	0.49797961	0.13905161	0.34964307	0.50531775	0.2409301	0.20438719	0.63029681	0.18148042	0.29971939	0.11216432	0.11083475	0.27443475	0.096808762	0.20160426	0.33289096	0.35184036	0.2470295	0.19556084	0.058717144	0.14554077
14349	143.48	0.43334772	0.072972664	0.14896255	0.0587416	0.64037689	0.12322842	-0.013481118	0.67303906	0.1649413	-0.16360339	0.66934985	0.016309071	-0.050835899	0.69581622	-0.16803957	0.044518894	0.6660614	-0.14516942	0.364694	0.83604559	-0.0077377377	0.32033398	0.93809521	0.18972287	0.32866104	0.92975616	-0.19741411	0.27032837	0.70107037	-0.0019412843	0.34290341	0.80325299	-0.11554936	0.38919101	0.4970701	0.13844922	0.3531282	0.50474466	0.24038651	0.20888246	0.6309303	0.18095572	0.30002194	0.11202599	0.11070383	0.27467648	0.096809738	0.20152301	0.33518307	0.35142581	0.24659962	0.19563618	0.058690063	0.14543492
14350	143.49	0.4334129	0.072804642	0.14911447	0.063168602	0.64281683	0.12313995	-0.0086636791	0.67595605	0.16501724	-0.15912941	0.67281226	0.016333115	-0.045927956	0.69875378	-0.16811023	0.048932022	0.66830298	-0.14523416	0.37169574	0.835505	-0.0075890117	0.32704825	0.93856696	0.18940627	0.33590054	0.92924927	-0.19747878	0.27491159	0.70144006	-0.001496688	0.34919662	0.80251019	-0.11500994	0.39245786	0.49613354	0.13795934	0.35663611	0.50413687	0.23993713	0.21346582	0.63160522	0.18057591	0.30027277	0.1119143	0.11061806	0.27487656	0.096804779	0.20147751	0.33745886	0.35100366	0.24626274	0.19569397	0.058651039	0.14533736
14351	143.5	0.43340207	0.072708412	0.14927034	0.067492165	0.6454118	0.12303671	-0.0039562359	0.67899701	0.16508054	-0.15476678	0.67627643	0.016304083	-0.041145237	0.70169714	-0.16821022	0.053237186	0.67061499	-0.14532121	0.37804819	0.83576123	-0.0075076871	0.33319971	0.93968567	0.18911642	0.3424382	0.92945667	-0.19758649	0.27937518	0.70243634	-0.0011386929	0.35495331	0.80259589	-0.11463076	0.39571628	0.49518365	0.13759166	0.36012177	0.5035007	0.23959064	0.21810181	0.63232599	0.18036111	0.30047687	0.11182966	0.11057779	0.27503726	0.0967939	0.20146715	0.33971088	0.35056921	0.24602565	0.195735	0.058603642	0.14525255
14352	143.51	0.43332028	0.072675201	0.14942984	0.071722878	0.64817249	0.12293279	0.00065267909	0.68219641	0.16514716	-0.15046954	0.67985162	0.016218323	-0.036448406	0.70472424	-0.16832726	0.057472679	0.6730368	-0.14541519	0.38375473	0.83681342	-0.0074787917	0.33882474	0.94146112	0.1888517	0.34835275	0.93038678	-0.19773401	0.28380035	0.70402655	-0.00088551658	0.36020575	0.80351697	-0.11442461	0.39892926	0.49423477	0.13734004	0.36354266	0.50284839	0.23934174	0.22275829	0.63310339	0.18030229	0.30063907	0.11177096	0.11058076	0.27516165	0.096778145	0.20148933	0.34192523	0.35012393	0.24588301	0.19576021	0.058553009	0.14518518
14353	143.52	0.43318552	0.07268998	0.14958757	0.075874062	0.65112036	0.1228442	0.0051783209	0.68559198	0.16523351	-0.14619896	0.68363702	0.016078094	-0.031798347	0.70791846	-0.16844312	0.06167474	0.67562219	-0.14549825	0.38885675	0.8386347	-0.0074872389	0.343979	0.94388251	0.1886109	0.35373901	0.93203497	-0.19791238	0.28823917	0.70618286	-0.00073732752	0.36500769	0.8052536	-0.11437631	0.40205994	0.49330011	0.13718599	0.36686261	0.50219608	0.23917406	0.22740628	0.63395374	0.18036763	0.3007644	0.11173602	0.11062241	0.27525519	0.096759331	0.20154082	0.34408264	0.34967514	0.24581999	0.19577081	0.058503819	0.14513765
14354	143.53	0.43302603	0.072731926	0.14973116	0.079955444	0.65428467	0.12278747	0.0096332378	0.68922034	0.16535536	-0.14193263	0.6877085	0.015890289	-0.02716729	0.71135492	-0.16853525	0.065867943	0.67842902	-0.14555214	0.39342911	0.84118274	-0.0075188103	0.34873114	0.94691937	0.1883942	0.35869247	0.93438806	-0.19810805	0.29270673	0.70888715	-0.00067795891	0.3694278	0.8077641	-0.11445259	0.40507352	0.49239023	0.13710187	0.37005313	0.5015611	0.23906326	0.23202315	0.63489764	0.18051639	0.30085913	0.11172164	0.11069615	0.27532568	0.096739632	0.20161786	0.34616275	0.34923425	0.24581613	0.19576881	0.058459038	0.14510913
